<?xml version="1.0" standalone="no"?>
<!DOCTYPE svg PUBLIC "-//W3C//DTD SVG 20010904//EN"
 "http://www.w3.org/TR/2001/REC-SVG-20010904/DTD/svg10.dtd">
<svg version="1.0" xmlns="http://www.w3.org/2000/svg"
 width="1178.000000pt" height="1280.000000pt" viewBox="0 0 1178.000000 1280.000000"
 preserveAspectRatio="xMidYMid meet">
<metadata>
Created by potrace 1.15, written by Peter Selinger 2001-2017
</metadata>
<g transform="translate(0.000000,1280.000000) scale(0.100000,-0.100000)"
fill="#000000" stroke="none">
<path d="M5829 11633 c-92 -124 -267 -334 -461 -555 -83 -95 -207 -237 -276
-315 -68 -78 -137 -147 -153 -153 -16 -7 -41 -32 -57 -57 -56 -91 -68 -105
-94 -121 -34 -20 -46 -11 -59 49 -7 31 -36 78 -93 154 -46 61 -91 125 -100
143 -10 18 -21 77 -26 135 -5 56 -13 116 -18 132 -28 94 -144 272 -202 310
-17 11 -49 41 -71 68 -65 76 -123 99 -300 117 -86 8 -119 8 -175 -4 -209 -45
-391 -151 -553 -321 -157 -167 -255 -348 -320 -592 -13 -47 -84 -131 -308
-362 -145 -148 -177 -190 -202 -260 -9 -25 -29 -65 -45 -88 l-29 -43 -66 0
c-117 0 -236 -45 -366 -137 -72 -52 -257 -220 -310 -283 -16 -19 -52 -55 -78
-80 -62 -56 -92 -109 -111 -190 -9 -36 -31 -110 -50 -165 -29 -81 -36 -115
-36 -177 0 -88 14 -170 36 -210 23 -42 44 -119 44 -161 0 -34 -8 -46 -78 -115
-43 -42 -84 -92 -91 -109 -7 -18 -28 -48 -46 -67 -45 -48 -65 -113 -65 -210 0
-70 -3 -85 -26 -117 -32 -47 -42 -120 -33 -249 4 -52 8 -150 8 -216 1 -67 5
-146 11 -175 16 -89 73 -190 153 -274 63 -66 81 -79 142 -101 77 -28 105 -48
105 -75 0 -10 -33 -51 -72 -91 -80 -81 -118 -147 -163 -288 -14 -47 -54 -164
-86 -260 -62 -181 -92 -284 -104 -357 -4 -24 -11 -43 -16 -43 -12 0 -11 -144
2 -200 6 -25 11 -113 13 -195 2 -121 6 -156 19 -176 10 -14 15 -28 12 -31 -8
-8 15 -120 37 -178 12 -30 38 -89 58 -130 21 -41 40 -87 44 -102 10 -45 57
-89 130 -124 39 -19 76 -34 83 -34 33 0 28 -123 -13 -285 -25 -96 -25 -105
-14 -215 24 -250 75 -453 167 -669 46 -108 119 -243 160 -297 20 -27 23 -42
23 -116 0 -257 53 -523 137 -693 69 -138 102 -182 217 -288 89 -82 126 -109
172 -127 65 -24 241 -47 427 -56 113 -6 119 -7 165 -40 113 -80 137 -94 165
-94 16 0 68 -14 115 -31 95 -33 109 -34 377 -10 140 12 212 29 295 71 33 16
70 30 82 30 47 0 126 50 229 143 117 105 166 160 197 222 28 55 58 80 92 77
63 -7 160 59 199 136 16 31 23 36 59 38 56 3 83 24 143 112 29 42 80 106 114
142 34 36 70 80 79 98 22 43 56 175 56 219 0 19 8 48 17 66 15 27 18 62 19
227 0 227 -2 216 123 479 44 91 87 191 95 221 24 84 59 353 60 460 1 71 5 101
18 120 9 14 29 62 44 107 21 64 38 96 77 140 53 61 116 183 137 268 7 28 13
86 15 130 1 44 5 90 9 103 14 44 75 52 186 26 66 -16 69 -18 84 -58 21 -55
126 -193 165 -217 29 -17 31 -22 31 -76 0 -32 -7 -90 -15 -128 -29 -136 -13
-229 62 -370 38 -70 36 -124 -11 -265 -21 -63 -51 -140 -66 -170 -37 -73 -43
-117 -31 -228 7 -64 16 -103 31 -128 21 -32 21 -36 6 -59 -23 -35 -20 -55 20
-132 36 -67 37 -69 31 -158 -4 -56 -22 -149 -47 -245 -39 -149 -41 -164 -51
-384 -7 -170 -7 -243 1 -280 25 -109 54 -194 92 -276 22 -47 50 -105 62 -130
26 -56 168 -205 219 -232 56 -28 119 -95 157 -167 62 -117 246 -291 424 -404
61 -39 90 -50 144 -58 37 -5 89 -14 115 -19 27 -6 97 -10 156 -10 90 0 112 3
132 19 40 31 103 59 180 81 93 25 134 25 188 -1 51 -24 146 -23 221 4 25 9 72
21 105 26 33 6 71 20 85 31 14 11 50 37 80 57 163 112 310 300 370 473 13 36
35 79 50 95 39 43 47 62 60 141 23 145 32 190 51 236 12 29 19 71 19 112 0 38
4 66 10 66 6 0 30 -18 54 -40 41 -38 116 -79 145 -80 8 0 39 -12 70 -26 l55
-27 76 23 c41 13 98 26 127 30 29 3 60 14 71 23 10 9 28 17 39 17 42 0 115 34
160 74 27 23 63 48 80 55 42 17 110 91 135 147 13 29 29 49 46 55 71 28 71 27
152 232 96 242 116 320 129 507 9 120 8 155 -4 205 -8 33 -14 81 -15 106 0 54
-24 128 -73 224 -48 95 -115 188 -234 324 l-100 115 13 33 c8 18 32 83 53 145
21 62 42 121 46 131 5 12 19 17 50 17 68 0 138 28 212 86 37 29 88 66 113 81
69 43 130 106 130 136 0 19 16 38 65 77 98 78 155 162 155 227 0 13 10 38 23
54 19 26 22 43 22 117 0 74 3 92 23 119 26 37 27 49 7 95 -10 25 -12 55 -8
106 4 52 1 84 -11 121 -19 60 -21 181 -4 334 9 85 9 123 -1 175 -17 90 -57
241 -87 326 -13 38 -24 78 -24 89 0 34 -52 116 -95 152 -25 20 -56 62 -78 102
-45 86 -74 113 -127 120 -37 5 -43 10 -66 54 -29 57 -29 70 -7 263 14 128 14
169 4 285 -19 213 -29 273 -51 303 -11 15 -20 37 -20 48 0 31 -26 87 -46 98
-16 9 -15 15 15 90 19 48 34 103 36 138 2 33 7 102 11 154 14 217 -57 450
-184 599 -52 60 -172 153 -244 188 -104 50 -173 140 -323 423 -48 91 -95 176
-105 190 -9 14 -24 43 -31 65 -8 22 -41 69 -75 105 -33 36 -86 100 -117 142
-86 118 -180 186 -271 197 -57 7 -44 -16 -140 245 -31 82 -74 181 -97 219 -47
79 -118 154 -155 163 -16 4 -31 22 -47 58 -20 42 -36 59 -90 95 -37 24 -76 59
-88 78 -12 19 -46 50 -75 69 -29 19 -58 43 -64 53 -5 11 -35 29 -65 40 -30 11
-78 34 -108 51 -78 44 -141 60 -236 60 -195 0 -381 -92 -507 -252 -31 -40 -85
-102 -119 -138 -70 -74 -159 -230 -199 -352 -53 -157 -60 -208 -60 -438 1
-186 4 -228 23 -310 33 -145 34 -147 23 -165 -8 -15 -14 -11 -41 29 -46 66
-76 139 -122 295 -56 189 -76 239 -108 280 -16 20 -42 74 -59 121 -17 47 -69
175 -117 285 -131 305 -234 475 -372 613 -65 65 -76 72 -111 72 -39 0 -42 -3
-113 -97z"/>
</g>
</svg>
