<svg version="1.1" xmlns="http://www.w3.org/2000/svg" x="0px" y="0px" viewBox="0 0 4453 1000">
                                 <title>
                                    Logo
                                 </title>
                               <g id="en-big" class="logo__long logo__long--en">
                                    <path display="inline" fill="#04293C" d="M1180.6,416.1c-18.2-17.5-41.9-28.7-68.3-28.7c-24.4,0-41.5,10.1-41.5,26.8 c0,17.1,12,24.1,36.1,28.7l42.7,8.5c48.9,9.7,79.5,29.1,79.5,75.7c0,54.7-48.5,85-111,85c-60.9,0-102.8-32.6-119.1-55.1l40.7-34.9 c16.3,21.7,43.5,41.1,79.9,41.1c30.7,0,48.5-12,48.5-31.4c0-18.2-15.5-23.3-39.6-27.5l-34.1-6.6c-48.1-9.3-84.6-26.8-84.6-78.4 c0-47.3,43.8-80.3,101.7-80.3c46.6,0,83.8,17.5,106.3,41.5L1180.6,416.1z">
                                    </path>
                                    <path display="inline" fill="#04293C" d="M1395.1,536c-3.9-18.6-8.5-43.1-12.4-62.9h-0.4c-4.3,18.6-8.1,43.5-12.8,63.6l-15.5,70.6 h-70.6l-46.6-184.7h58.2l14.7,79.9c3.5,19,6.6,37.6,10.5,56.6h0.4c4.3-18.2,7.8-35.3,13.2-57.8l19.4-78.8h60.5l19.8,79.5 c6.2,24.4,8.5,38,12.8,57h0.4c3.9-18.6,6.2-31.4,11.3-58.2l15.1-78.4h55.9l-48.9,184.7h-69.8L1395.1,536z">
                                    </path>
                                    <path display="inline" fill="#04293C" d="M1610.1,399h-57v-55.5h57V399z M1610.1,607.3h-57V422.7h57V607.3z">
                                    </path>
                                    <path display="inline" fill="#04293C" d="M1776.1,478.9c-13.6-12.4-31.8-20.2-50.1-20.2c-12.8,0-24.1,4.3-24.1,13.6 c0,9.7,8.5,12.4,27.5,16.3l29.1,6.2c29.9,6.2,57,18.2,57,53.5c0,43.1-37.6,63.6-81.5,63.6c-42.3,0-78-18.6-94.7-41.5l35.7-28.7 c11.3,15.5,33.4,28.3,59,28.3c19,0,28.7-6.2,28.7-16.3c0-10.5-11.3-12.4-23.7-14.7l-29.1-5.8c-18.6-3.5-34.5-9.7-45.8-19.4 c-10.1-8.5-15.9-20.6-15.9-36.1c0-43.8,42.3-59.8,78.8-59.8c34.5,0,62.1,12.8,80.7,30.7L1776.1,478.9z">
                                    </path>
                                    <path display="inline" fill="#04293C" d="M1965.9,478.9c-13.6-12.4-31.8-20.2-50.1-20.2c-12.8,0-24.1,4.3-24.1,13.6 c0,9.7,8.5,12.4,27.5,16.3l29.1,6.2c29.9,6.2,57,18.2,57,53.5c0,43.1-37.6,63.6-81.5,63.6c-42.3,0-78-18.6-94.7-41.5l35.7-28.7 c11.3,15.5,33.4,28.3,59,28.3c19,0,28.7-6.2,28.7-16.3c0-10.5-11.3-12.4-23.7-14.7l-29.1-5.8c-18.6-3.5-34.5-9.7-45.8-19.4 c-10.1-8.5-15.9-20.6-15.9-36.1c0-43.8,42.3-59.8,78.8-59.8c34.5,0,62.1,12.8,80.7,30.7L1965.9,478.9z">
                                    </path>
                                    <path display="inline" fill="#04293C" d="M2262.7,446.7c21,34.5,38.8,67.5,38.8,67.5h0.4c0,0-2.3-52-2.3-82.6v-88.1h57.8v263.8h-59 l-62.5-101.7c-14.7-24.4-40-71-40-71h-0.4c0,0,2.7,43.8,2.7,86.1v86.5h-58.2V343.5h59.4L2262.7,446.7z">
                                    </path>
                                    <path display="inline" fill="#04293C" d="M2564.2,561.2c0,11.6,1.6,15.5,9.7,15.5h2.7v32.6c-8.5,1.6-17.1,2.3-26.4,2.3 c-16.3,0-31.4-3.1-35.3-16.7h-0.4c-8.5,9.3-22.1,17.1-52,17.1c-40.7,0-66.7-21-66.7-59.4c0-35.3,26.8-49.3,66-55.5l38.4-6.2 c10.1-1.6,11.6-2.7,11.6-8.5v-3.1c0-14-7.8-21.7-27.2-21.7c-19.8,0-30.7,8.1-30.7,26.8l-52.4-0.4c-0.8-42.3,33.4-65.2,85.4-65.2 c47.3,0,77.2,14.7,77.2,56.6V561.2z M2511.4,523.5c-4.3,1.6-7.8,3.5-27.5,7.4c-18.2,3.5-31.8,6.6-31.8,22.5 c0,15.1,11.3,21.7,27.5,21.7c18.6,0,31.8-8.5,31.8-27.9V523.5z">
                                    </path>
                                    <path display="inline" fill="#04293C" d="M2719.8,608.1c-7.8,1.6-20.6,3.1-34.1,3.1c-22.1,0-45.4-3.1-55.1-15.9 c-7-9.3-7.8-19.4-7.8-38v-96.2h-35.7v-38.4h35.7v-62.9l56.6-11.3v74.1h40.4v38.4h-40.4v81.9c0,10.5,1.2,15.5,4.7,19 c3.9,4.3,10.9,5.8,21.3,5.8c6.6,0,11.6-0.4,14.4-0.8V608.1z">
                                    </path>
                                    <path display="inline" fill="#04293C" d="M2810.2,399h-57v-55.5h57V399z M2810.2,607.3h-57V422.7h57V607.3z">
                                    </path>
                                    <path display="inline" fill="#04293C" d="M2944.8,418c58.2,0,98.2,35.3,98.2,97.8c0,62.5-40,96.2-98.2,96.2 c-58.2,0-97.8-33.8-97.8-96.2C2847,453.3,2886.6,418,2944.8,418z M2944.8,568.9c26,0,40.7-20.2,40.7-53.9 c0-34.5-14.4-54.3-40.7-54.3c-26.4,0-40.4,20.2-40.4,54.3C2904.4,549.1,2918.8,568.9,2944.8,568.9z">
                                    </path>
                                    <path display="inline" fill="#04293C" d="M3256,607.3h-56.6v-93.1c0-28.3-1.2-48.1-29.1-48.1c-23.7,0-33.8,18.6-33.8,43.8v97.4 h-56.6V422.7h55.9v22.9c8.9-15.1,29.1-27.5,55.5-27.5c21.3,0,37.6,5.8,48.5,17.8c11.6,13.2,16.3,26,16.3,66.7V607.3z">
                                    </path>
                                    <path display="inline" fill="#04293C" d="M3459.3,561.2c0,11.6,1.6,15.5,9.7,15.5h2.7v32.6c-8.5,1.6-17.1,2.3-26.4,2.3 c-16.3,0-31.4-3.1-35.3-16.7h-0.4c-8.5,9.3-22.1,17.1-52,17.1c-40.7,0-66.7-21-66.7-59.4c0-35.3,26.8-49.3,66-55.5l38.4-6.2 c10.1-1.6,11.6-2.7,11.6-8.5v-3.1c0-14-7.8-21.7-27.2-21.7c-19.8,0-30.7,8.1-30.7,26.8l-52.4-0.4c-0.8-42.3,33.4-65.2,85.4-65.2 c47.3,0,77.2,14.7,77.2,56.6V561.2z M3406.5,523.5c-4.3,1.6-7.8,3.5-27.5,7.4c-18.2,3.5-31.8,6.6-31.8,22.5 c0,15.1,11.3,21.7,27.5,21.7c18.6,0,31.8-8.5,31.8-27.9V523.5z">
                                    </path>
                                    <path display="inline" fill="#04293C" d="M3565.2,607.3h-56.6V343.5h56.6V607.3z">
                                    </path>
                                    <path display="inline" fill="#04293C" d="M1180.6,804.1c-18.2-17.5-41.9-28.7-68.3-28.7c-24.4,0-41.5,10.1-41.5,26.8 c0,17.1,12,24.1,36.1,28.7l42.7,8.5c48.9,9.7,79.5,29.1,79.5,75.7c0,54.7-48.5,85-111,85c-60.9,0-102.8-32.6-119.1-55.1l40.7-34.9 c16.3,21.7,43.5,41.1,79.9,41.1c30.7,0,48.5-12,48.5-31.4c0-18.2-15.5-23.3-39.6-27.5l-34.1-6.6c-48.1-9.3-84.6-26.8-84.6-78.4 c0-47.3,43.8-80.3,101.7-80.3c46.6,0,83.8,17.5,106.3,41.5L1180.6,804.1z">
                                    </path>
                                    <path display="inline" fill="#04293C" d="M1434.3,949.6c-10.1,26-36.1,50.4-85,50.4c-58.2,0-97.8-33.8-97.8-96.2 c0-62.5,39.6-97.8,97.8-97.8c51.2,0,77.6,27.5,86.9,57.4l-48.9,16.7c-5.4-20.2-18.2-31.4-38-31.4c-26.4,0-40.4,20.2-40.4,54.3 c0,34.1,14.4,53.9,40.4,53.9c18.2,0,31-9.7,36.9-27.2L1434.3,949.6z">
                                    </path>
                                    <path display="inline" fill="#04293C" d="M1520.1,787h-57v-55.5h57V787z M1520.1,995.3h-57V810.7h57V995.3z">
                                    </path>
                                    <path display="inline" fill="#04293C" d="M1741.2,956.2c-10.9,15.5-37.6,43.8-88.5,43.8c-54.3,0-95.8-35.7-95.8-97.8 c0-57.8,39.6-96.2,94.7-96.2c60.9,0,92,43.8,92,100.1c0,3.9,0,8.1-0.4,11.6h-131.5c1.9,20.2,16.7,37.6,44.6,37.6 c24.8,0,39.6-14.7,45.8-25.6L1741.2,956.2z M1611.6,881.3h77.2c-1.2-21.3-14.7-36.1-37.6-36.1 C1629.1,845.2,1612.4,861.9,1611.6,881.3z">
                                    </path>
                                    <path display="inline" fill="#04293C" d="M1955.8,995.3h-56.6v-93.1c0-28.3-1.2-48.1-29.1-48.1c-23.7,0-33.8,18.6-33.8,43.8v97.4 h-56.6V810.7h55.9v22.9c8.9-15.1,29.1-27.5,55.5-27.5c21.3,0,37.6,5.8,48.5,17.8c11.6,13.2,16.3,26,16.3,66.7V995.3z">
                                    </path>
                                    <path display="inline" fill="#04293C" d="M2173.8,949.6c-10.1,26-36.1,50.4-85,50.4c-58.2,0-97.8-33.8-97.8-96.2 c0-62.5,39.6-97.8,97.8-97.8c51.2,0,77.6,27.5,86.9,57.4l-48.9,16.7c-5.4-20.2-18.2-31.4-38-31.4c-26.4,0-40.4,20.2-40.4,54.3 c0,34.1,14.4,53.9,40.4,53.9c18.2,0,31-9.7,36.9-27.2L2173.8,949.6z">
                                    </path>
                                    <path display="inline" fill="#04293C" d="M2374,956.2c-10.9,15.5-37.6,43.8-88.5,43.8c-54.3,0-95.8-35.7-95.8-97.8 c0-57.8,39.6-96.2,94.7-96.2c60.9,0,92,43.8,92,100.1c0,3.9,0,8.1-0.4,11.6h-131.5c1.9,20.2,16.7,37.6,44.6,37.6 c24.8,0,39.6-14.7,45.8-25.6L2374,956.2z M2244.5,881.3h77.2c-1.2-21.3-14.7-36.1-37.6-36.1 C2261.9,845.2,2245.2,861.9,2244.5,881.3z">
                                    </path>
                                    <path display="inline" fill="#04293C" d="M2570,783.1v52h107.5v52.4H2570v107.9h-58.6V731.5h171.1v51.6H2570z">
                                    </path>
                                    <path display="inline" fill="#04293C" d="M2790.4,806c58.2,0,98.2,35.3,98.2,97.8c0,62.5-40,96.2-98.2,96.2 c-58.2,0-97.8-33.8-97.8-96.2C2692.6,841.3,2732.2,806,2790.4,806z M2790.4,956.9c26,0,40.7-20.2,40.7-53.9 c0-34.5-14.4-54.3-40.7-54.3c-26.4,0-40.4,20.2-40.4,54.3C2750,937.1,2764.4,956.9,2790.4,956.9z">
                                    </path>
                                    <path display="inline" fill="#04293C" d="M2923.1,810.7h56.6v93.1c0,28.3,0.4,48.1,28.3,48.1c22.9,0,33-18.6,33-43.8v-97.4h56.6 v184.7h-55.9v-22.9c-8.9,15.1-28.7,27.5-54.7,27.5c-21.3,0-36.9-5.8-47.7-17.8c-11.6-13.2-16.3-26-16.3-66.7V810.7z">
                                    </path>
                                    <path display="inline" fill="#04293C" d="M3323.5,995.3h-56.6v-93.1c0-28.3-1.2-48.1-29.1-48.1c-23.7,0-33.8,18.6-33.8,43.8v97.4 h-56.6V810.7h55.9v22.9c8.9-15.1,29.1-27.5,55.5-27.5c21.3,0,37.6,5.8,48.5,17.8c11.6,13.2,16.3,26,16.3,66.7V995.3z">
                                    </path>
                                    <path display="inline" fill="#04293C" d="M3498.8,827.3v-95.8h56.6v263.8h-56.6v-17.1c-8.9,10.1-28.7,21.7-54.3,21.7 c-52.4,0-85.7-38.8-85.7-97c0-56.3,34.5-97,86.1-97C3471.7,806,3489.5,816.1,3498.8,827.3z M3458.1,849.1 c-26.4,0-41.9,21-41.9,53.9c0,33.8,14.4,54.3,41.9,54.3c25.2,0,42.3-22.1,42.3-54.3S3483.3,849.1,3458.1,849.1z">
                                    </path>
                                    <path display="inline" fill="#04293C" d="M3760.3,949.2c0,11.6,1.6,15.5,9.7,15.5h2.7v32.6c-8.5,1.6-17.1,2.3-26.4,2.3 c-16.3,0-31.4-3.1-35.3-16.7h-0.4c-8.5,9.3-22.1,17.1-52,17.1c-40.7,0-66.7-21-66.7-59.4c0-35.3,26.8-49.3,66-55.5l38.4-6.2 c10.1-1.6,11.6-2.7,11.6-8.5v-3.1c0-14-7.8-21.7-27.2-21.7c-19.8,0-30.7,8.1-30.7,26.8l-52.4-0.4c-0.8-42.3,33.4-65.2,85.4-65.2 c47.3,0,77.2,14.7,77.2,56.6V949.2z M3707.6,911.5c-4.3,1.6-7.8,3.5-27.5,7.4c-18.2,3.5-31.8,6.6-31.8,22.5 c0,15.1,11.3,21.7,27.5,21.7c18.6,0,31.8-8.5,31.8-27.9V911.5z">
                                    </path>
                                    <path display="inline" fill="#04293C" d="M3915.9,996.1c-7.8,1.6-20.6,3.1-34.1,3.1c-22.1,0-45.4-3.1-55.1-15.9 c-7-9.3-7.8-19.4-7.8-38v-96.2h-35.7v-38.4h35.7v-62.9l56.6-11.3v74.1h40.4v38.4h-40.4v81.9c0,10.5,1.2,15.5,4.7,19 c3.9,4.3,10.9,5.8,21.3,5.8c6.6,0,11.6-0.4,14.4-0.8V996.1z">
                                    </path>
                                    <path display="inline" fill="#04293C" d="M4006.3,787h-57v-55.5h57V787z M4006.3,995.3h-57V810.7h57V995.3z">
                                    </path>
                                    <path display="inline" fill="#04293C" d="M4141,806c58.2,0,98.2,35.3,98.2,97.8c0,62.5-40,96.2-98.2,96.2 c-58.2,0-97.8-33.8-97.8-96.2C4043.2,841.3,4082.8,806,4141,806z M4141,956.9c26,0,40.7-20.2,40.7-53.9c0-34.5-14.4-54.3-40.7-54.3 c-26.4,0-40.4,20.2-40.4,54.3C4100.6,937.1,4115,956.9,4141,956.9z">
                                    </path>
                                    <path display="inline" fill="#04293C" d="M4452.1,995.3h-56.6v-93.1c0-28.3-1.2-48.1-29.1-48.1c-23.7,0-33.8,18.6-33.8,43.8v97.4 H4276V810.7h55.9v22.9c8.9-15.1,29.1-27.5,55.5-27.5c21.3,0,37.6,5.8,48.5,17.8c11.6,13.2,16.3,26,16.3,66.7V995.3z">
                                    </path>
                                 </g>
                               
                               
                                 <g id="icon">
                                    <path fill="#04293C" d="M68.5,892h18.7V545.3H68.5V892z M509.3,422.8V123.1h-18.7v299.7c-14.1,1.7-27.1,7.2-37.8,15.4 c-1.6,1.2-3.2,2.6-4.8,3.9C447,443,446,444,445,445c-12,12-20.1,27.9-22.2,45.7H123.1v18.7h299.7c4.4,37.2,35.1,66.3,72.9,68.3 c1.4,0.1,2.9,0.1,4.3,0.1h0c0.2,0,0.4,0,0.6,0c2.5,0,4.9-0.1,7.3-0.4c0,0,0.1,0,0.1,0c16.8-1.7,31.9-8.7,43.8-19.4 c0.2-0.2,0.3-0.3,0.5-0.4c0.4-0.4,0.9-0.8,1.3-1.2c0.5-0.4,0.9-0.9,1.4-1.3c0.2-0.2,0.3-0.4,0.5-0.5c0.7-0.7,1.4-1.4,2.1-2.2 c0.1-0.1,0.2-0.3,0.4-0.4c12.3-13.8,19.9-31.9,19.9-51.9v0C577.8,460.2,547.9,427.4,509.3,422.8z M545.3,68.5v18.7H892V68.5H545.3 z">
                                    </path>
                                    <path fill="#C95B40" d="M77.8,844.4c-43,0-77.8,34.8-77.8,77.8c0,43,34.8,77.8,77.8,77.8s77.8-34.8,77.8-77.8 C155.6,879.3,120.7,844.4,77.8,844.4z M500,0c-43,0-77.8,34.8-77.8,77.8c0,43,34.8,77.8,77.8,77.8s77.8-34.8,77.8-77.8 C577.8,34.8,543,0,500,0z">
                                    </path>
                                    <path fill="#5298BD" d="M922.2,0c-43,0-77.8,34.8-77.8,77.8c0,43,34.8,77.8,77.8,77.8c43,0,77.8-34.8,77.8-77.8 C1000,34.8,965.2,0,922.2,0z M77.8,422.2C34.8,422.2,0,457,0,500c0,43,34.8,77.8,77.8,77.8c43,0,77.8-34.8,77.8-77.8 C155.6,457,120.7,422.2,77.8,422.2z">
                                    </path>
                                 </g>
                              </svg>
